<?xml version="1.0" standalone="no"?>
<!DOCTYPE svg PUBLIC "-//W3C//DTD SVG 1.1//EN" "http://www.w3.org/Graphics/SVG/1.1/DTD/svg11.dtd" >
<svg xmlns="http://www.w3.org/2000/svg" xmlns:xlink="http://www.w3.org/1999/xlink" version="1.1">
<metadata></metadata>
<defs>
<font id="fb_alfalight" horiz-adv-x="756" >
<font-face units-per-em="2048" ascent="1638" descent="-410" />
<missing-glyph horiz-adv-x="524" />
<glyph unicode="&#xd;" horiz-adv-x="512" />
<glyph unicode=" "  horiz-adv-x="524" />
<glyph unicode="&#x09;" horiz-adv-x="524" />
<glyph unicode="&#xa0;" horiz-adv-x="524" />
<glyph unicode="!" horiz-adv-x="460" d="M266 838q-22 -149 -32.5 -279t-10.5 -242h-41q0 95 -12 226.5t-35 302.5l-19 133q-1 10 -1.5 18.5t-0.5 16.5q0 78 90 78q86 0 86 -70q0 -8 -1 -18.5t-3 -24.5zM296 72q0 -45 -28 -70q-21 -25 -64 -25t-67.5 25t-24.5 70q0 96 92 96q43 0 64 -25q28 -24 28 -71z" />
<glyph unicode="&#x22;" horiz-adv-x="630" d="M549 1130q0 -79 -49 -167q-26 -48 -57 -83.5t-68 -58.5l-25 23q22 26 38.5 53.5t29.5 56.5q7 21 8 62q1 49 -6 67q-15 33 -15 80q0 74 66 74q78 0 78 -107zM248 1130q0 -78 -50 -167q-52 -96 -124 -142l-23 23q43 52 66 110q7 18 8 62q2 50 -4 67q-15 28 -15 80 q0 74 66 74q76 0 76 -107z" />
<glyph unicode="#" horiz-adv-x="929" d="M862 829l-13 -81h-145l-55 -297h151l-14 -80h-150l-39 -219h-98l39 219h-248l-41 -217h-86l41 217h-137l14 80h140l55 297h-143l10 81h147l39 215h82l-35 -215h248l41 215h94l-37 -215h140zM610 748h-246l-55 -297h245z" />
<glyph unicode="$" horiz-adv-x="815" d="M702 236q0 -116 -90 -183q-77 -59 -201 -71v-109h-59v107q-155 11 -233 83v123h20q71 -131 213 -149v459l-41 24q-215 143 -215 277q0 104 66 172q68 69 190 75v103h59v-105q138 -11 201 -57v-123h-16q-23 46 -72 80q-57 42 -113 43v-410q291 -179 291 -339zM352 987 q-166 -19 -166 -166q0 -100 166 -203v369zM594 225q0 73 -64 140q-16 16 -45 39.5t-74 54.5v-422q183 28 183 188z" />
<glyph unicode="%" horiz-adv-x="1325" d="M1181 242q0 -269 -229 -269t-229 269q0 268 229 268t229 -268zM1091 1049l-737 -1049h-113l738 1049h112zM604 805q0 -128 -60 -198t-172 -70q-229 0 -229 268t229 268q232 0 232 -268zM1075 244q0 211 -123 211q-121 0 -121 -211q0 -209 121 -209q123 0 123 209z M495 807q0 211 -123 211q-120 0 -120 -211q0 -209 120 -209q123 0 123 209z" />
<glyph unicode="&#x26;" horiz-adv-x="1521" d="M1419 158q-20 -85 -108 -149q-86 -64 -174 -64q-137 0 -312 172q-181 -172 -405 -172q-142 0 -227 75q-91 79 -91 218q0 150 119 269q75 75 248 173q-68 141 -68 256q0 131 76 216q79 91 207 91q110 0 179 -57q75 -62 75 -170q0 -195 -287 -324q122 -224 244 -385 q172 212 172 338q0 81 -121 88v39h400v-39q-32 -4 -54.5 -9.5t-36.5 -12.5q-50 -24 -84 -88q-123 -229 -233 -369q148 -174 285 -174q57 0 97 28q26 17 73 72zM840 1022q0 34 -10.5 63.5t-29.5 51t-46.5 33.5t-61.5 12q-143 0 -143 -164q0 -106 74 -266q217 126 217 270z M776 168q-128 167 -280 446q-220 -130 -220 -311q0 -108 66 -181q68 -77 174 -77q132 0 260 123z" />
<glyph unicode="'" horiz-adv-x="329" d="M248 1130q0 -78 -50 -167q-52 -96 -124 -142l-23 23q43 52 66 110q7 18 8 62q2 50 -4 67q-15 28 -15 80q0 74 66 74q76 0 76 -107z" />
<glyph unicode="(" horiz-adv-x="643" d="M543 -328q-201 105 -312 365q-96 225 -96 477q0 254 96 479q111 260 312 365h55q-146 -131 -211 -262q-125 -252 -125 -584q0 -326 121 -569q50 -100 215 -271h-55z" />
<glyph unicode=")" horiz-adv-x="643" d="M508 514q0 -248 -96 -477q-116 -266 -312 -365h-55q26 29 53.5 58.5t55.5 58.5q35 42 62 80t44 74q121 243 121 569q0 338 -123 584q-56 111 -213 262h55q201 -105 312 -365q96 -225 96 -479z" />
<glyph unicode="*" horiz-adv-x="694" d="M594 780q-13 -28 -35 -10l-199 152l35 -242q4 -27 -25 -27h-55q-25 0 -25 27l37 240l-190 -150q-20 -14 -33 10l-29 45q-14 22 9 33l225 92l-227 97q-22 10 -11 32l27 47q14 26 35 9l194 -154l-37 250q-5 24 25 24h55q25 0 25 -24l-35 -250l197 162q22 18 37 -8l26 -45 q13 -27 -10 -37l-232 -103l232 -92q18 -8 12 -33z" />
<glyph unicode="+" horiz-adv-x="696" d="M646 453h-264v-271h-90v271h-262v90h262v276h90v-276h264v-90z" />
<glyph unicode="," horiz-adv-x="319" d="M227 104q0 -78 -50 -169q-50 -92 -124 -138l-23 23q43 52 66 110q7 18 8 62q2 50 -4 67q-15 28 -15 80q0 72 66 72q76 0 76 -107z" />
<glyph unicode="-" horiz-adv-x="696" d="M626 453h-555v90h555v-90z" />
<glyph unicode="." horiz-adv-x="329" d="M237 72q0 -45 -28 -70q-21 -25 -64 -25t-67.5 25t-24.5 70q0 96 92 96q43 0 64 -25q28 -24 28 -71z" />
<glyph unicode="/" horiz-adv-x="811" d="M729 1231l-580 -1434h-88l578 1434h90z" />
<glyph unicode="0" horiz-adv-x="860" d="M764 524q0 -225 -66 -364q-84 -180 -270 -180q-332 0 -332 544q0 547 336 547q332 0 332 -547zM633 526q0 469 -209 469q-199 0 -199 -458q0 -484 203 -484q89 0 141 103q64 122 64 370z" />
<glyph unicode="1" horiz-adv-x="860" d="M594 0h-305l-11 18q115 48 115 101v743q-56 -22 -137 -22q-29 0 -39 6v31q151 35 260 172h27l12 -21v-930q0 -24 29 -44q15 -10 30 -19t29 -17z" />
<glyph unicode="2" horiz-adv-x="860" d="M770 0h-662l-16 23l375 456q125 152 125 297q0 115 -76 170q-56 43 -143 43q-138 0 -197 -125h-14v144q77 59 249 59q144 0 230 -78t86 -215q0 -156 -135 -315l-297 -350l10 -17h405l60 -84v-8z" />
<glyph unicode="3" horiz-adv-x="860" d="M751 289q0 -143 -110 -229q-109 -85 -269 -85q-180 0 -262 64v139h14q80 -131 230 -131q108 0 182 51q84 60 84 168q0 129 -78 195q-68 57 -172 57h-8q-51 0 -78 -18l-18 8v88l18 6q25 -16 78 -16h4q84 0 145 49q74 59 74 166q0 194 -215 194q-129 0 -192 -94h-15v107 q79 61 244 61q121 0 201 -59q96 -72 96 -201q0 -83 -56 -154q-56 -70 -141 -98q121 -18 187 -106q57 -74 57 -162z" />
<glyph unicode="4" horiz-adv-x="860" d="M792 317h-129v-217q0 -40 72 -80l-13 -20h-243l-11 20q76 46 76 80v217h-477v25l401 666q26 41 84 41h101l12 -21v-625h92l35 -73v-13zM544 403v533h-22l-316 -533h338z" />
<glyph unicode="5" horiz-adv-x="860" d="M751 309q0 -156 -113 -248q-104 -86 -266 -86q-180 0 -262 64v139h14q80 -131 230 -131q108 0 182 59q84 70 84 195q0 121 -75 184.5t-204 63.5q-118 0 -182 -64h-16v559h545v-14l-52 -80h-366v-344q42 17 129 17q162 0 257 -86t95 -228z" />
<glyph unicode="6" horiz-adv-x="860" d="M766 324q0 -156 -94 -250q-93 -94 -250 -94q-195 0 -273 129q-55 94 -55 278v178q0 494 377 494q131 0 188 -33v-111h-14q-73 68 -176 68q-246 0 -246 -350q0 -19 0.5 -38.5t1.5 -39.5q73 84 238 84q124 0 206 -74q97 -85 97 -241zM635 305q0 258 -238 258 q-94 0 -174 -53v-242q0 -221 203 -221q94 0 151.5 64.5t57.5 193.5z" />
<glyph unicode="7" horiz-adv-x="860" d="M772 1006q-77 -129 -129 -234q-186 -371 -186 -631q0 -96 53 -123q2 2 2 0h-2l-8 -18h-111q-65 0 -65 88q0 80 10 139q39 231 147 445q91 180 156 264v10h-549v17l43 81h623z" />
<glyph unicode="8" horiz-adv-x="860" d="M776 264q0 -135 -93 -214q-92 -79 -253 -79q-167 0 -255.5 75.5t-88.5 213.5q0 222 184 307q-143 74 -143 234q0 127 80 201q79 75 221 75q134 0 217 -66q82 -64 82 -190q0 -168 -182 -266q231 -101 231 -291zM616 811q0 49 -14 86.5t-39.5 63t-61.5 38.5t-79 13 q-186 0 -186 -205q0 -77 69 -129q55 -43 191 -94q120 64 120 227zM653 244q0 180 -331 297q-115 -84 -115 -277q0 -219 223 -219q54 0 96 14.5t70 41t42.5 63t14.5 80.5z" />
<glyph unicode="9" horiz-adv-x="860" d="M766 473q0 -493 -377 -493q-130 0 -189 34v107h15q73 -70 176 -70q246 0 246 355q0 18 -0.5 37.5t-1.5 39.5q-74 -84 -238 -84q-125 0 -207 76q-96 84 -96 240q0 157 94 250q94 94 250 94q195 0 272 -129q56 -95 56 -279v-178zM637 750q0 118 -68 186q-56 55 -141 55 q-203 0 -203 -258t238 -258q94 0 174 53v222z" />
<glyph unicode=":" horiz-adv-x="419" d="M276 731q0 -45 -28 -69q-21 -25 -64 -25q-92 0 -92 94q0 96 92 96q42 0 67 -27t25 -69zM276 72q0 -45 -28 -70q-21 -25 -64 -25t-67.5 25t-24.5 70q0 96 92 96q43 0 64 -25q28 -24 28 -71z" />
<glyph unicode=";" horiz-adv-x="442" d="M299 731q0 -45 -29 -69q-19 -25 -63 -25q-92 0 -92 94q0 96 92 96q42 0 67 -27t25 -69zM289 104q0 -78 -50 -169q-50 -92 -124 -138l-23 23q43 52 66 110q7 18 8 62q2 50 -4 67q-15 28 -15 80q0 72 66 72q76 0 76 -107z" />
<glyph unicode="&#x3c;" horiz-adv-x="696" d="M603 147l-573 357v33l573 344v-103l-448 -256l448 -270v-105z" />
<glyph unicode="=" horiz-adv-x="696" d="M606 614h-514v91h514v-91zM606 322h-514v90h514v-90z" />
<glyph unicode="&#x3e;" horiz-adv-x="696" d="M656 504l-573 -357v105l442 268l-442 258v103l573 -344v-33z" />
<glyph unicode="?" horiz-adv-x="761" d="M618 836q0 -131 -148 -279q-47 -47 -120 -135q-43 -65 -43 -107h-37q-6 34 -6 70q0 99 102 215q111 123 111 229q0 95 -60 146q-52 41 -123 41q-26 0 -51 -7.5t-47 -21.5t-40 -33t-28 -41h-16v127q86 56 211 56q295 0 295 -260zM386 72q0 -43 -25 -69t-67 -26 q-92 0 -92 95q0 42 25 69t67 27q92 0 92 -96z" />
<glyph unicode="@" horiz-adv-x="1697" d="M1517 741q0 -167 -103 -315q-113 -168 -272 -168q-70 0 -121 39q-52 39 -53 109q-22 -61 -85 -105q-61 -43 -124 -43q-109 0 -176 72q-66 73 -66 182q0 149 116 279q115 129 261 129q135 0 168 -113q52 89 139 94q29 2 29 -24q0 -5 -2 -15l-39 -119q-90 -282 -90 -340 q0 -15 6.5 -29t17 -24.5t25 -17t29.5 -6.5q118 0 202 153q70 130 70 260q0 203 -160 324q-146 113 -356 113q-254 0 -447 -175q-196 -180 -196 -432q0 -244 176 -393q164 -137 414 -137q86 0 188 24q133 33 266 121q16 11 27 11q27 0 27 -27q0 -22 -19 -35 q-116 -80 -256 -123q-117 -37 -260 -37q-271 0 -471 160q-217 169 -217 434q0 295 235 494q221 184 525 184q237 0 407 -129q185 -141 185 -375zM1023 752q0 100 -100 100q-102 0 -181 -156q-67 -133 -67 -245q0 -127 110 -127q98 0 175 170q63 142 63 258z" />
<glyph unicode="[" horiz-adv-x="616" d="M571 -328h-408v1684h408v-94h-279v-1495h279v-95z" />
<glyph unicode="\" horiz-adv-x="800" d="M737 -137q6 -14 2 -21q-6 -8 -16 -4l-99 45q-22 10 -30 29l-574 1227q-4 7 -4 14q0 24 31 8l82 -45q21 -11 32 -35z" />
<glyph unicode="]" horiz-adv-x="616" d="M453 -328h-408v95h279v1495h-279v94h408v-1684z" />
<glyph unicode="^" horiz-adv-x="960" d="M892 467h-137l-275 582l-278 -582h-137l366 758q17 35 47 35t47 -35z" />
<glyph unicode="_" horiz-adv-x="1024" d="M1024 -229h-1024v90h1024v-90z" />
<glyph unicode="{" horiz-adv-x="608" d="M563 -330h-56q-91 0 -157 15.5t-109 49t-63.5 87t-20.5 129.5q0 20 1 40t3 42l29 252q18 164 -129 235q147 68 129 232l-29 243q-2 22 -3 41.5t-1 38.5q0 150 85 215.5t265 65.5h56v-70h-56q-231 0 -210 -266l20 -270q12 -153 -164 -230q73 -29 119 -96q51 -74 45 -162 l-20 -262q-21 -260 210 -260h56v-70z" />
<glyph unicode="|" horiz-adv-x="491" d="M286 -326h-82v1684h82v-1684z" />
<glyph unicode="}" horiz-adv-x="608" d="M547 520q-147 -71 -127 -235l28 -252q4 -23 5.5 -44.5t1.5 -41.5q0 -150 -83 -213q-82 -64 -270 -64h-57v70h55q215 0 215 215q0 10 -0.5 21t-1.5 24l-22 262q-7 94 45 166q44 63 119 92q-177 77 -164 230l22 270q23 266 -213 266h-55v70h57q191 0 272 -63 q81 -62 81 -208q0 -20 -1.5 -42.5t-5.5 -47.5l-28 -243q-20 -164 127 -232z" />
<glyph unicode="~" horiz-adv-x="1107" d="M1076 641q-40 -172 -119 -246q-70 -65 -161 -65q-89 0 -279 75q-189 76 -250 76q-128 0 -192 -186q-13 -37 -33 -37t-14 37q13 98 73 190q74 113 197 113q83 0 272 -73q190 -72 260 -72q74 0 125 61q38 44 70 127q17 41 37 41q16 0 16 -27q0 -4 -2 -14z" />
<glyph unicode="&#xa2;" horiz-adv-x="874" d="M769 299q-79 -319 -330 -319q-67 0 -137 30l-121 -334h-61l133 365q-143 135 -143 346q0 216 133 334q103 88 233 88q10 0 23 -0.5t30 -1.5l119 328h62l-123 -344q157 -72 157 -175q0 -71 -79 -71q-49 0 -74 33q-12 17 -21 59q-10 55 -16 65l-195 -538q79 -53 140 -53 q110 0 174 73q25 33 69 125zM507 739q-27 11 -51 11q-109 0 -164 -97q-45 -80 -45 -196q0 -117 67 -244z" />
<glyph unicode="&#xa3;" horiz-adv-x="874" d="M836 258q-15 -113 -72 -188q-68 -90 -174 -90q-72 0 -150 45q-15 9 -47 32t-82 60q-68 -137 -159 -137q-46 0 -73.5 31t-27.5 79q0 30 10.5 54.5t29.5 42t45 27t57 9.5q27 0 71 -6q1 6 2 15t2 22v29q0 74 -18 280h-166v82h166q-12 127 -12 170q0 225 159 324 q72 45 158 45q82 0 145 -45q72 -50 72 -129q0 -14 -5.5 -26.5t-15 -23t-21.5 -16.5t-25 -6q-33 0 -54 33q-9 12 -14 69q-4 51 -28.5 74t-73.5 23q-156 0 -156 -240q0 -29 2.5 -68.5t7.5 -91.5l8 -92h221v-82h-221q1 -20 1.5 -34t0.5 -23q0 -148 -53 -307q162 -54 191 -60 q43 -10 88 -10q141 0 180 137zM254 147q-38 23 -72 23q-82 0 -82 -74q0 -67 56 -67q70 0 98 118z" />
<glyph unicode="&#xa7;" horiz-adv-x="874" d="M741 412q0 -179 -188 -293q104 -116 104 -217q0 -103 -69 -173q-68 -71 -172 -71q-83 0 -150 56q-65 56 -65 136q0 15 5.5 28.5t14.5 24t21 17t26 6.5q64 0 64 -76q0 -14 -8 -46q-7 -29 -7 -46q0 -32 37 -51q31 -16 66 -16q58 0 104 43q47 44 47 98q0 109 -176 240 q-122 91 -174 153q-88 100 -88 205q0 175 189 291q-105 117 -105 221q0 101 69 172q70 70 173 70q86 0 151 -54q66 -53 66 -135q0 -77 -68 -77q-67 0 -67 67q0 11 6 40q6 28 6 42q0 80 -94 80q-62 0 -105 -43t-43 -107q0 -55 23 -90q38 -60 129 -125q125 -92 184 -157 q94 -104 94 -213zM655 332q0 119 -192 268q-37 29 -65 52t-48 42q-129 -78 -129 -190q0 -80 66 -158q20 -23 53.5 -51.5t79.5 -63.5q31 -23 56.5 -44.5t47.5 -41.5q131 78 131 187z" />
<glyph unicode="&#xa9;" horiz-adv-x="1335" d="M1274 580q0 -163 -82 -306q-83 -143 -226 -222q-142 -79 -298 -79q-163 0 -306 82q-143 83 -222 224q-79 142 -79 301q0 163 84 307q84 146 226 222q143 77 297 77q161 0 304 -81q144 -81 222 -220q80 -146 80 -305zM1223 580q0 150 -76 280q-77 132 -208 203 q-132 72 -271 72q-148 0 -278 -75t-202 -202q-73 -133 -73 -278q0 -148 74 -279q76 -132 205 -203q131 -71 274 -71q148 0 279 74q129 74 203 205q73 130 73 274zM999 369q-119 -174 -327 -174q-165 0 -281 107q-115 108 -115 273q0 175 127 287q121 109 299 109 q60 0 158 -33q21 -6 31 -6q27 0 43 37h35l16 -238h-33q-62 201 -260 201q-138 0 -215 -107q-59 -85 -59 -225q0 -354 282 -354q169 0 269 139z" />
<glyph unicode="&#xab;" horiz-adv-x="1024" d="M961 -8h-60l-393 473l393 469h60l-244 -469zM508 -8h-57l-388 473l388 469h57l-244 -469z" />
<glyph unicode="&#xad;" horiz-adv-x="696" d="M626 453h-555v90h555v-90z" />
<glyph unicode="&#xb6;" horiz-adv-x="792" d="M797 1112h-115v-1491h-61v1491h-160v-1491h-62v893q-137 6 -209 31q-108 34 -159 125q-43 74 -43 170q0 189 170 278q84 41 215 41h424v-47z" />
<glyph unicode="&#xb7;" horiz-adv-x="512" d="M367 678q0 -48 -31.5 -79.5t-79.5 -31.5q-45 0 -78 33t-33 78q0 48 31.5 79t79.5 31t79.5 -31t31.5 -79z" />
<glyph unicode="&#xbb;" horiz-adv-x="1024" d="M961 463l-388 -471h-57l244 471l-244 471h57zM516 463l-393 -471h-60l244 471l-244 471h60z" />
<glyph unicode="&#xbc;" horiz-adv-x="1312" d="M1283 123h-92v-158h-100v158h-293v61l319 398h74v-389h92v-70zM1103 1184l-799 -1231h-76l799 1231h76zM405 567h-277v29q74 0 82 18q4 9 4 64v319q0 87 -12 101q-5 4 -17 4q-17 0 -57 -17l-14 23l176 76h28v-506q0 -51 7 -64q10 -18 80 -18v-29zM1091 193v268l-224 -268 h224z" />
<glyph unicode="&#xbd;" horiz-adv-x="1312" d="M1277 96l-53 -131h-422v27q323 251 323 389q0 55 -35.5 89t-89.5 34q-103 0 -141 -101h-39q27 179 207 179q78 0 137 -41q68 -45 68 -119q0 -134 -293 -373h160q110 0 139 47h39zM1082 1184l-798 -1231h-76l799 1231h75zM405 567h-277v29q74 0 82 18q4 9 4 64v319 q0 87 -12 101q-5 4 -17 4q-17 0 -57 -17l-14 23l176 76h28v-506q0 -51 7 -64q10 -18 80 -18v-29z" />
<glyph unicode="&#xbe;" horiz-adv-x="1312" d="M1283 123h-92v-158h-100v158h-293v61l319 398h74v-389h92v-70zM1091 1184l-797 -1231h-76l799 1231h74zM445 770q0 -107 -92 -166q-79 -49 -192 -49q-125 0 -125 53q0 39 49 39q23 0 71 -21q49 -20 76 -20q47 0 82 33t35 80q0 145 -198 141v25q59 0 107 36q48 37 48 97 q0 94 -104 94q-73 0 -125 -76l-33 15q66 133 197 133q63 0 112 -31q58 -37 58 -96q0 -58 -90 -131q124 -45 124 -156zM1091 193v268l-222 -268h222z" />
<glyph unicode="&#xd7;" horiz-adv-x="987" d="M844 281l-49 -50l-303 304l-302 -304l-49 50l301 301l-301 301l52 49l299 -299l301 299l49 -47l-301 -301z" />
<glyph unicode="&#xf7;" horiz-adv-x="1124" d="M648 987q0 -18 -7 -33.5t-19 -27t-28 -18.5t-34 -7t-34 7t-28 18.5t-19 27t-7 33.5q0 37 25.5 62.5t62.5 25.5q39 0 63.5 -24.5t24.5 -63.5zM1101 641h-1079v82h1079v-82zM648 367q0 -37 -25.5 -62.5t-62.5 -25.5q-18 0 -34 7t-28 19t-19 28t-7 34t7 34t19 28t28 19t34 7 q39 0 63.5 -26t24.5 -62z" />
<glyph unicode="&#x591;" d="M657 770q0 -119 -83 -202t-203 -83q-118 0 -200 84q-83 85 -83 201q0 118 83 203q82 84 200 84q120 0 203 -84q83 -85 83 -203zM578 770q0 88 -60 148q-58 61 -147 61q-86 0 -146 -61q-59 -61 -59 -148q0 -84 59 -146q60 -61 146 -61q89 0 147 61q60 61 60 146z" />
<glyph unicode="&#x592;" d="M657 770q0 -119 -83 -202t-203 -83q-118 0 -200 84q-83 85 -83 201q0 118 83 203q82 84 200 84q120 0 203 -84q83 -85 83 -203zM578 770q0 88 -60 148q-58 61 -147 61q-86 0 -146 -61q-59 -61 -59 -148q0 -84 59 -146q60 -61 146 -61q89 0 147 61q60 61 60 146z" />
<glyph unicode="&#x593;" d="M657 770q0 -119 -83 -202t-203 -83q-118 0 -200 84q-83 85 -83 201q0 118 83 203q82 84 200 84q120 0 203 -84q83 -85 83 -203zM578 770q0 88 -60 148q-58 61 -147 61q-86 0 -146 -61q-59 -61 -59 -148q0 -84 59 -146q60 -61 146 -61q89 0 147 61q60 61 60 146z" />
<glyph unicode="&#x594;" d="M657 770q0 -119 -83 -202t-203 -83q-118 0 -200 84q-83 85 -83 201q0 118 83 203q82 84 200 84q120 0 203 -84q83 -85 83 -203zM578 770q0 88 -60 148q-58 61 -147 61q-86 0 -146 -61q-59 -61 -59 -148q0 -84 59 -146q60 -61 146 -61q89 0 147 61q60 61 60 146z" />
<glyph unicode="&#x595;" d="M657 770q0 -119 -83 -202t-203 -83q-118 0 -200 84q-83 85 -83 201q0 118 83 203q82 84 200 84q120 0 203 -84q83 -85 83 -203zM578 770q0 88 -60 148q-58 61 -147 61q-86 0 -146 -61q-59 -61 -59 -148q0 -84 59 -146q60 -61 146 -61q89 0 147 61q60 61 60 146z" />
<glyph unicode="&#x596;" d="M657 770q0 -119 -83 -202t-203 -83q-118 0 -200 84q-83 85 -83 201q0 118 83 203q82 84 200 84q120 0 203 -84q83 -85 83 -203zM578 770q0 88 -60 148q-58 61 -147 61q-86 0 -146 -61q-59 -61 -59 -148q0 -84 59 -146q60 -61 146 -61q89 0 147 61q60 61 60 146z" />
<glyph unicode="&#x597;" d="M657 770q0 -119 -83 -202t-203 -83q-118 0 -200 84q-83 85 -83 201q0 118 83 203q82 84 200 84q120 0 203 -84q83 -85 83 -203zM578 770q0 88 -60 148q-58 61 -147 61q-86 0 -146 -61q-59 -61 -59 -148q0 -84 59 -146q60 -61 146 -61q89 0 147 61q60 61 60 146z" />
<glyph unicode="&#x598;" d="M657 770q0 -119 -83 -202t-203 -83q-118 0 -200 84q-83 85 -83 201q0 118 83 203q82 84 200 84q120 0 203 -84q83 -85 83 -203zM578 770q0 88 -60 148q-58 61 -147 61q-86 0 -146 -61q-59 -61 -59 -148q0 -84 59 -146q60 -61 146 -61q89 0 147 61q60 61 60 146z" />
<glyph unicode="&#x599;" d="M657 770q0 -119 -83 -202t-203 -83q-118 0 -200 84q-83 85 -83 201q0 118 83 203q82 84 200 84q120 0 203 -84q83 -85 83 -203zM578 770q0 88 -60 148q-58 61 -147 61q-86 0 -146 -61q-59 -61 -59 -148q0 -84 59 -146q60 -61 146 -61q89 0 147 61q60 61 60 146z" />
<glyph unicode="&#x59a;" d="M657 770q0 -119 -83 -202t-203 -83q-118 0 -200 84q-83 85 -83 201q0 118 83 203q82 84 200 84q120 0 203 -84q83 -85 83 -203zM578 770q0 88 -60 148q-58 61 -147 61q-86 0 -146 -61q-59 -61 -59 -148q0 -84 59 -146q60 -61 146 -61q89 0 147 61q60 61 60 146z" />
<glyph unicode="&#x59b;" d="M657 770q0 -119 -83 -202t-203 -83q-118 0 -200 84q-83 85 -83 201q0 118 83 203q82 84 200 84q120 0 203 -84q83 -85 83 -203zM578 770q0 88 -60 148q-58 61 -147 61q-86 0 -146 -61q-59 -61 -59 -148q0 -84 59 -146q60 -61 146 -61q89 0 147 61q60 61 60 146z" />
<glyph unicode="&#x59c;" d="M657 770q0 -119 -83 -202t-203 -83q-118 0 -200 84q-83 85 -83 201q0 118 83 203q82 84 200 84q120 0 203 -84q83 -85 83 -203zM578 770q0 88 -60 148q-58 61 -147 61q-86 0 -146 -61q-59 -61 -59 -148q0 -84 59 -146q60 -61 146 -61q89 0 147 61q60 61 60 146z" />
<glyph unicode="&#x59d;" d="M657 770q0 -119 -83 -202t-203 -83q-118 0 -200 84q-83 85 -83 201q0 118 83 203q82 84 200 84q120 0 203 -84q83 -85 83 -203zM578 770q0 88 -60 148q-58 61 -147 61q-86 0 -146 -61q-59 -61 -59 -148q0 -84 59 -146q60 -61 146 -61q89 0 147 61q60 61 60 146z" />
<glyph unicode="&#x59e;" d="M657 770q0 -119 -83 -202t-203 -83q-118 0 -200 84q-83 85 -83 201q0 118 83 203q82 84 200 84q120 0 203 -84q83 -85 83 -203zM578 770q0 88 -60 148q-58 61 -147 61q-86 0 -146 -61q-59 -61 -59 -148q0 -84 59 -146q60 -61 146 -61q89 0 147 61q60 61 60 146z" />
<glyph unicode="&#x59f;" d="M657 770q0 -119 -83 -202t-203 -83q-118 0 -200 84q-83 85 -83 201q0 118 83 203q82 84 200 84q120 0 203 -84q83 -85 83 -203zM578 770q0 88 -60 148q-58 61 -147 61q-86 0 -146 -61q-59 -61 -59 -148q0 -84 59 -146q60 -61 146 -61q89 0 147 61q60 61 60 146z" />
<glyph unicode="&#x5a0;" d="M657 770q0 -119 -83 -202t-203 -83q-118 0 -200 84q-83 85 -83 201q0 118 83 203q82 84 200 84q120 0 203 -84q83 -85 83 -203zM578 770q0 88 -60 148q-58 61 -147 61q-86 0 -146 -61q-59 -61 -59 -148q0 -84 59 -146q60 -61 146 -61q89 0 147 61q60 61 60 146z" />
<glyph unicode="&#x5a1;" d="M657 770q0 -119 -83 -202t-203 -83q-118 0 -200 84q-83 85 -83 201q0 118 83 203q82 84 200 84q120 0 203 -84q83 -85 83 -203zM578 770q0 88 -60 148q-58 61 -147 61q-86 0 -146 -61q-59 -61 -59 -148q0 -84 59 -146q60 -61 146 -61q89 0 147 61q60 61 60 146z" />
<glyph unicode="&#x5a3;" d="M657 770q0 -119 -83 -202t-203 -83q-118 0 -200 84q-83 85 -83 201q0 118 83 203q82 84 200 84q120 0 203 -84q83 -85 83 -203zM578 770q0 88 -60 148q-58 61 -147 61q-86 0 -146 -61q-59 -61 -59 -148q0 -84 59 -146q60 -61 146 -61q89 0 147 61q60 61 60 146z" />
<glyph unicode="&#x5a4;" d="M657 770q0 -119 -83 -202t-203 -83q-118 0 -200 84q-83 85 -83 201q0 118 83 203q82 84 200 84q120 0 203 -84q83 -85 83 -203zM578 770q0 88 -60 148q-58 61 -147 61q-86 0 -146 -61q-59 -61 -59 -148q0 -84 59 -146q60 -61 146 -61q89 0 147 61q60 61 60 146z" />
<glyph unicode="&#x5a5;" d="M657 770q0 -119 -83 -202t-203 -83q-118 0 -200 84q-83 85 -83 201q0 118 83 203q82 84 200 84q120 0 203 -84q83 -85 83 -203zM578 770q0 88 -60 148q-58 61 -147 61q-86 0 -146 -61q-59 -61 -59 -148q0 -84 59 -146q60 -61 146 -61q89 0 147 61q60 61 60 146z" />
<glyph unicode="&#x5a6;" d="M657 770q0 -119 -83 -202t-203 -83q-118 0 -200 84q-83 85 -83 201q0 118 83 203q82 84 200 84q120 0 203 -84q83 -85 83 -203zM578 770q0 88 -60 148q-58 61 -147 61q-86 0 -146 -61q-59 -61 -59 -148q0 -84 59 -146q60 -61 146 -61q89 0 147 61q60 61 60 146z" />
<glyph unicode="&#x5a7;" d="M657 770q0 -119 -83 -202t-203 -83q-118 0 -200 84q-83 85 -83 201q0 118 83 203q82 84 200 84q120 0 203 -84q83 -85 83 -203zM578 770q0 88 -60 148q-58 61 -147 61q-86 0 -146 -61q-59 -61 -59 -148q0 -84 59 -146q60 -61 146 -61q89 0 147 61q60 61 60 146z" />
<glyph unicode="&#x5a8;" d="M657 770q0 -119 -83 -202t-203 -83q-118 0 -200 84q-83 85 -83 201q0 118 83 203q82 84 200 84q120 0 203 -84q83 -85 83 -203zM578 770q0 88 -60 148q-58 61 -147 61q-86 0 -146 -61q-59 -61 -59 -148q0 -84 59 -146q60 -61 146 -61q89 0 147 61q60 61 60 146z" />
<glyph unicode="&#x5a9;" d="M657 770q0 -119 -83 -202t-203 -83q-118 0 -200 84q-83 85 -83 201q0 118 83 203q82 84 200 84q120 0 203 -84q83 -85 83 -203zM578 770q0 88 -60 148q-58 61 -147 61q-86 0 -146 -61q-59 -61 -59 -148q0 -84 59 -146q60 -61 146 -61q89 0 147 61q60 61 60 146z" />
<glyph unicode="&#x5aa;" d="M657 770q0 -119 -83 -202t-203 -83q-118 0 -200 84q-83 85 -83 201q0 118 83 203q82 84 200 84q120 0 203 -84q83 -85 83 -203zM578 770q0 88 -60 148q-58 61 -147 61q-86 0 -146 -61q-59 -61 -59 -148q0 -84 59 -146q60 -61 146 -61q89 0 147 61q60 61 60 146z" />
<glyph unicode="&#x5ab;" d="M657 770q0 -119 -83 -202t-203 -83q-118 0 -200 84q-83 85 -83 201q0 118 83 203q82 84 200 84q120 0 203 -84q83 -85 83 -203zM578 770q0 88 -60 148q-58 61 -147 61q-86 0 -146 -61q-59 -61 -59 -148q0 -84 59 -146q60 -61 146 -61q89 0 147 61q60 61 60 146z" />
<glyph unicode="&#x5ac;" d="M657 770q0 -119 -83 -202t-203 -83q-118 0 -200 84q-83 85 -83 201q0 118 83 203q82 84 200 84q120 0 203 -84q83 -85 83 -203zM578 770q0 88 -60 148q-58 61 -147 61q-86 0 -146 -61q-59 -61 -59 -148q0 -84 59 -146q60 -61 146 -61q89 0 147 61q60 61 60 146z" />
<glyph unicode="&#x5ad;" d="M657 770q0 -119 -83 -202t-203 -83q-118 0 -200 84q-83 85 -83 201q0 118 83 203q82 84 200 84q120 0 203 -84q83 -85 83 -203zM578 770q0 88 -60 148q-58 61 -147 61q-86 0 -146 -61q-59 -61 -59 -148q0 -84 59 -146q60 -61 146 -61q89 0 147 61q60 61 60 146z" />
<glyph unicode="&#x5ae;" d="M657 770q0 -119 -83 -202t-203 -83q-118 0 -200 84q-83 85 -83 201q0 118 83 203q82 84 200 84q120 0 203 -84q83 -85 83 -203zM578 770q0 88 -60 148q-58 61 -147 61q-86 0 -146 -61q-59 -61 -59 -148q0 -84 59 -146q60 -61 146 -61q89 0 147 61q60 61 60 146z" />
<glyph unicode="&#x5af;" d="M657 770q0 -119 -83 -202t-203 -83q-118 0 -200 84q-83 85 -83 201q0 118 83 203q82 84 200 84q120 0 203 -84q83 -85 83 -203zM578 770q0 88 -60 148q-58 61 -147 61q-86 0 -146 -61q-59 -61 -59 -148q0 -84 59 -146q60 -61 146 -61q89 0 147 61q60 61 60 146z" />
<glyph unicode="&#x5b0;" horiz-adv-x="2" d="M88 -243q0 -18 -7 -33.5t-18.5 -27t-27 -18.5t-33.5 -7t-34 7t-28 18.5t-19 27t-7 33.5t7.5 33t19.5 26.5t28 18t33 6.5q37 0 61.5 -24.5t24.5 -59.5zM88 -512q0 -17 -7 -32.5t-18.5 -27.5t-27 -19t-33.5 -7t-34 7t-28 19t-19 27.5t-7 32.5q0 18 7.5 33t19.5 26.5t28 18 t33 6.5q37 0 61.5 -24.5t24.5 -59.5z" />
<glyph unicode="&#x5b1;" horiz-adv-x="2" d="M-137 -243q0 -18 -7 -33.5t-18.5 -27t-27 -18.5t-33.5 -7q-17 0 -32.5 6.5t-27.5 18t-19 27.5t-7 34q0 16 7 31.5t18.5 27t27 18.5t33.5 7q37 0 61.5 -24.5t24.5 -59.5zM98 -243q0 -18 -7 -33.5t-18.5 -27t-27 -18.5t-33.5 -7q-17 0 -32.5 7t-27.5 18.5t-19.5 27 t-7.5 33.5q0 34 28 59q26 25 59 25q37 0 61.5 -23.5t24.5 -60.5zM-10 -450q0 -18 -7 -33.5t-18.5 -27t-27 -18.5t-33.5 -7q-17 0 -32.5 6.5t-27.5 18t-19 27.5t-7 34q0 35 25.5 59.5t60.5 24.5t60.5 -24.5t25.5 -59.5zM311 -243q0 -15 -6 -27.5t-16.5 -22t-23.5 -15 t-27 -5.5q-70 0 -70 70q0 74 70 74q73 0 73 -74zM311 -458q0 -29 -21.5 -50.5t-51.5 -21.5q-70 0 -70 72q0 30 20.5 50.5t49.5 20.5q73 0 73 -71z" />
<glyph unicode="&#x5b2;" horiz-adv-x="2" d="M287 -243q0 -29 -22.5 -49.5t-51.5 -20.5q-70 0 -70 70q0 74 70 74q74 0 74 -74zM287 -458q0 -29 -21.5 -50.5t-52.5 -21.5q-70 0 -70 72q0 71 70 71q74 0 74 -71zM-258 -305q-26 0 -26 31v66q0 30 26 30h301q27 0 27 -30v-66q0 -31 -27 -31h-301z" />
<glyph unicode="&#x5b3;" horiz-adv-x="2" d="M287 -243q0 -29 -22.5 -49.5t-51.5 -20.5q-70 0 -70 70q0 74 70 74q33 0 53.5 -20.5t20.5 -53.5zM287 -458q0 -29 -21.5 -50.5t-52.5 -21.5q-70 0 -70 72q0 71 70 71q74 0 74 -71zM43 -178q27 0 27 -30v-66q0 -31 -27 -31h-118q0 -42 20 -88l23 -51q8 -18 8 -35 t-6.5 -31.5t-18 -26t-26.5 -18t-33 -6.5t-33 6.5t-26.5 18t-18 26t-6.5 31.5t8 35l23 51q22 48 22 88h-119q-26 0 -26 31v66q0 30 26 30h301z" />
<glyph unicode="&#x5b4;" horiz-adv-x="2" d="M92 -243q0 -35 -28 -62q-27 -28 -62 -28q-36 0 -64 28q-28 27 -28 62q0 18 7.5 34t20.5 28t29.5 19t34.5 7q39 0 64.5 -25.5t25.5 -62.5z" />
<glyph unicode="&#x5b5;" horiz-adv-x="2" d="M-45 -243q0 -18 -7 -33.5t-18.5 -27t-27 -18.5t-33.5 -7q-17 0 -32.5 7t-27.5 18.5t-19 27t-7 33.5t7 33t19 26.5t27.5 18t32.5 6.5q86 0 86 -84zM219 -243q0 -18 -7 -33.5t-18.5 -27t-27 -18.5t-33.5 -7t-33.5 7t-27 18.5t-18.5 27t-7 33.5q0 35 25.5 59.5t60.5 24.5 q37 0 61.5 -24.5t24.5 -59.5z" />
<glyph unicode="&#x5b6;" horiz-adv-x="2" d="M-45 -243q0 -18 -7 -33.5t-18.5 -27t-27 -18.5t-33.5 -7q-17 0 -32.5 7t-27.5 18.5t-19 27t-7 33.5t7 33t19 26.5t27.5 18t32.5 6.5q86 0 86 -84zM219 -243q0 -18 -7 -33.5t-18.5 -27t-27 -18.5t-33.5 -7t-33.5 7t-27 18.5t-18.5 27t-7 33.5q0 35 25.5 59.5t60.5 24.5 q37 0 61.5 -24.5t24.5 -59.5zM94 -468q0 -18 -7 -33.5t-18.5 -27.5t-27 -19t-33.5 -7q-17 0 -32.5 7t-27 19t-18.5 27.5t-7 33.5q0 34 25.5 58.5t59.5 24.5q37 0 61.5 -24.5t24.5 -58.5z" />
<glyph unicode="&#x5b7;" horiz-adv-x="2" d="M-190 -305q-27 0 -27 31v66q0 30 27 30h383q26 0 26 -30v-66q0 -31 -26 -31h-383z" />
<glyph unicode="&#x5b8;" horiz-adv-x="2" d="M193 -178q26 0 26 -30v-66q0 -31 -26 -31h-158q0 -48 18 -88l23 -51q8 -18 8 -35q0 -35 -24.5 -58.5t-57.5 -23.5q-17 0 -32 6.5t-26.5 18t-18 26t-6.5 31.5t8 35l22 51q21 45 21 88h-160q-27 0 -27 31v66q0 30 27 30h383z" />
<glyph unicode="&#x5b9;" horiz-adv-x="2" d="M86 1260q0 -18 -7 -33.5t-18.5 -27t-27 -18.5t-33.5 -7q-17 0 -32.5 7t-27.5 18.5t-19 27t-7 33.5q0 16 7 31.5t19 27t27.5 18.5t32.5 7q39 0 62.5 -23.5t23.5 -60.5z" />
<glyph unicode="&#x5bb;" horiz-adv-x="2" d="M92 -243q0 -18 -7 -33.5t-18.5 -27t-27 -18.5t-33.5 -7t-33.5 7t-27 18.5t-18.5 27t-7 33.5q0 35 25.5 59.5t60.5 24.5q86 0 86 -84zM235 -417q0 -18 -7 -33.5t-18.5 -27t-27 -18.5t-33.5 -7q-17 0 -32.5 7t-27 18.5t-18.5 27t-7 33.5t7 33t18.5 26.5t27 18t32.5 6.5 q37 0 61.5 -23.5t24.5 -60.5zM376 -589q0 -18 -7 -33.5t-18.5 -27t-27 -18.5t-33.5 -7q-17 0 -32.5 7t-27.5 18.5t-19 27t-7 33.5q0 32 26 58t60 26q86 0 86 -84z" />
<glyph unicode="&#x5bc;" horiz-adv-x="2" d="M86 457q0 -18 -7 -33.5t-18.5 -27t-27 -18.5t-33.5 -7q-17 0 -32.5 7t-27.5 18.5t-19 27t-7 33.5q0 32 27 58q28 26 59 26q37 0 61.5 -23.5t24.5 -60.5z" />
<glyph unicode="&#x5bd;" horiz-adv-x="2" d="M67 -587q0 -27 -31 -27h-65q-31 0 -31 27v383q0 26 31 26h65q31 0 31 -26v-383z" />
<glyph unicode="&#x5be;" horiz-adv-x="462" d="M403 953h-332v90h332v-90z" />
<glyph unicode="&#x5bf;" horiz-adv-x="462" d="M403 953h-332v90h332v-90z" />
<glyph unicode="&#x5c0;" horiz-adv-x="491" d="M286 -326h-82v1684h82v-1684z" />
<glyph unicode="&#x5c1;" horiz-adv-x="2" d="M1186 1260q0 -18 -7 -33.5t-18.5 -27t-27 -18.5t-33.5 -7q-17 0 -32.5 7t-27.5 18.5t-19 27t-7 33.5q0 16 7 31.5t19 27t27.5 18.5t32.5 7q39 0 62.5 -23.5t23.5 -60.5z" />
<glyph unicode="&#x5c2;" horiz-adv-x="2" d="M286 1260q0 -18 -7 -33.5t-18.5 -27t-27 -18.5t-33.5 -7q-17 0 -32.5 7t-27.5 18.5t-19 27t-7 33.5q0 16 7 31.5t19 27t27.5 18.5t32.5 7q39 0 62.5 -23.5t23.5 -60.5z" />
<glyph unicode="&#x5c3;" horiz-adv-x="419" d="M276 731q0 -45 -28 -69q-21 -25 -64 -25q-92 0 -92 94q0 96 92 96q42 0 67 -27t25 -69zM276 72q0 -45 -28 -70q-21 -25 -64 -25t-67.5 25t-24.5 70q0 96 92 96q43 0 64 -25q28 -24 28 -71z" />
<glyph unicode="&#x5c4;" horiz-adv-x="2" d="M86 1260q0 -18 -7 -33.5t-18.5 -27t-27 -18.5t-33.5 -7q-17 0 -32.5 7t-27.5 18.5t-19 27t-7 33.5q0 16 7 31.5t19 27t27.5 18.5t32.5 7q39 0 62.5 -23.5t23.5 -60.5z" />
<glyph unicode="&#x5d0;" horiz-adv-x="1167" d="M1059 0h-140q-82 113 -187.5 251.5t-236.5 305.5q-31 37 -67 37q-70 0 -115 -80q-49 -85 -49 -223v-84q0 -154 86 -180l-16 -27h-123q-86 0 -86 160v92q0 196 104 297q65 62 178 106q-38 51 -115.5 142.5t-195.5 226.5l6 20h146q190 -197 448 -526q21 -26 43 -26 q47 0 86 65q47 80 47 213v35q0 176 -117 205l15 34h119q122 0 122 -213q0 -167 -71 -262q-65 -85 -176 -135q108 -144 184 -248t121 -170z" />
<glyph unicode="&#x5d1;" horiz-adv-x="1036" d="M991 45l-17 -45h-905v20l49 72h621q-25 31 -25 105v409q0 369 -317 369q-177 0 -262 -90l-15 2v125q112 47 285 47q448 0 448 -449v-428q0 -81 64 -106z" />
<glyph unicode="&#x5d2;" horiz-adv-x="733" d="M632 0h-108q-37 0 -57 47q-28 63 -44 281h-10q-28 -109 -129 -217q-95 -101 -200 -150l-23 14l49 138q179 113 270 266q31 50 31 110v279q0 197 -155 197q-68 0 -113 -45l-12 2v106q52 23 147 23q268 0 268 -297v-279q0 -219 47 -383q16 -54 50 -74z" />
<glyph unicode="&#x5d3;" horiz-adv-x="983" d="M874 1004q-85 -26 -119 -67q-35 -43 -35 -126v-672q0 -102 45 -123l-8 -16h-115q-61 0 -61 98v703q0 112 37 145h-547l-45 82v16h840z" />
<glyph unicode="&#x5d4;" horiz-adv-x="1105" d="M989 0h-113q-61 0 -61 98v488q0 389 -359 389q-212 0 -303 -105l-14 2v132q110 55 330 55q485 0 485 -449v-471q0 -102 43 -123zM315 0h-115q-59 0 -59 98v369q0 60 66 98l57 33l16 -8v-451q0 -102 43 -123z" />
<glyph unicode="&#x5d5;" horiz-adv-x="452" d="M331 0h-112q-62 0 -62 98v733q0 95 -27 136q-18 28 -63 45l12 32h97q120 0 120 -167v-738q0 -102 43 -123z" />
<glyph unicode="&#x5d6;" horiz-adv-x="657" d="M549 1014q-106 -45 -174 -121q-62 -68 -62 -188q0 -44 6 -99l62 -475q10 -76 55 -113l-8 -18h-129q-39 0 -45 55l-57 455q-5 39 -8 72t-3 61q0 92 30 157q30 67 105 146h-221l-53 78v20h502v-30z" />
<glyph unicode="&#x5d7;" horiz-adv-x="1191" d="M1075 0h-115q-59 0 -59 98v492q0 217 -121 307q-99 72 -303 72h-13q-85 0 -151 -17v-813q0 -102 43 -123l-8 -16h-115q-59 0 -59 98v822q0 53 -68 77v31q78 14 178 21.5t223 7.5q240 0 365 -80q168 -110 168 -371v-467q0 -102 43 -123z" />
<glyph unicode="&#x5d8;" horiz-adv-x="1239" d="M1120 502q0 -238 -135 -380q-133 -142 -363 -142q-228 0 -349 123q-122 125 -122 350v399q0 127 -82 160l12 32h105q104 0 104 -147v-494q0 -160 86.5 -244.5t245.5 -84.5q162 0 257 95t95 286v135q0 373 -241 373q-116 0 -166 -113h-31v133q88 66 225 66q135 0 228 -84 q131 -119 131 -385v-78z" />
<glyph unicode="&#x5d9;" horiz-adv-x="425" d="M286 639q0 -64 -51 -109l-76 -67l-12 8v377q0 133 -92 166l12 30h117q102 0 102 -139v-266z" />
<glyph unicode="&#x5da;" horiz-adv-x="950" d="M837 -371h-117q-55 0 -55 99v858q0 389 -318 389q-177 0 -262 -90l-14 2v125q112 47 281 47q452 0 452 -449v-841q0 -105 41 -123z" />
<glyph unicode="&#x5db;" horiz-adv-x="1009" d="M900 496q0 -247 -133 -384q-134 -137 -364 -137q-196 0 -285 56v129l14 8q84 -105 252 -105q140 0 240 82q129 106 129 322v80q0 238 -129 348q-95 78 -240 78q-168 0 -252 -105l-14 6v132q88 55 285 55q236 0 366 -133q131 -134 131 -387v-45z" />
<glyph unicode="&#x5dc;" horiz-adv-x="952" d="M839 725q0 -172 -160 -332l-139 -139q-104 -104 -104 -164v-10q0 -41 28 -60l-14 -20h-103q-53 0 -53 80q0 49 33 96q13 19 38.5 48t65.5 69l142 143q125 128 125 260q0 133 -84 199q-66 51 -158 51h-389v373q0 27 -37 70l8 20h96q68 0 68 -102v-263h283q354 0 354 -319z " />
<glyph unicode="&#x5dd;" horiz-adv-x="1228" d="M1108 0h-940v913q0 54 -68 78v29q82 19 194.5 28t256.5 9q522 0 522 -471v-418q0 -110 47 -145zM936 92v457q0 232 -115 332q-100 88 -301 88h-14q-123 0 -201 -21v-856h631z" />
<glyph unicode="&#x5de;" horiz-adv-x="1251" d="M1120 393q0 -196 -110 -304q-110 -107 -294 -107q-132 0 -213 26v115l8 6q76 -66 197 -66h6q109 0 180 66q88 79 88 236v317q0 283 -258 283q-138 0 -211 -97q-54 -72 -112 -274l-150 -502q-16 -52 10 -84l-10 -8h-106q-39 0 -39 41q0 14 4 29l151 528l-145 332 q-32 70 -88 86l12 28h107q52 0 78 -53l110 -239q107 299 393 299q392 0 392 -379v-279z" />
<glyph unicode="&#x5df;" horiz-adv-x="444" d="M331 -371h-112q-60 0 -60 99v1103q0 153 -92 185l10 28h103q116 0 116 -167v-1108q0 -104 43 -123z" />
<glyph unicode="&#x5e0;" horiz-adv-x="651" d="M530 0h-457v8l47 84h246v668q0 201 -156 201q-56 0 -90 -39l-10 6v102q34 19 119 19q274 0 274 -281v-643q0 -79 35 -105z" />
<glyph unicode="&#x5e1;" horiz-adv-x="1255" d="M1138 528q0 -260 -125 -403q-131 -150 -371 -150q-258 0 -385 144q-112 127 -112 348v59q0 296 174 412v6h-150l-53 84v16h561q461 0 461 -516zM988 549q0 405 -327 405h-78q-148 0 -207 -59q-82 -79 -82 -307v-152q0 -368 328 -368h26q160 0 250 100t90 285v96z" />
<glyph unicode="&#x5e2;" horiz-adv-x="1107" d="M962 668q0 -366 -278 -572q-97 -72 -307 -137q-161 -51 -293 -72h-8v113q31 0 75 5t103 15q140 26 209 58l-285 796q-26 69 -51 94q-25 27 -74 46l14 30h133q69 0 101 -86l284 -819q82 45 144 140q92 140 92 339v228q0 136 -113 168l15 30h141q98 0 98 -157v-219z" />
<glyph unicode="&#x5e3;" horiz-adv-x="1083" d="M971 -371h-119q-55 0 -55 99v899q0 354 -306 354q-254 0 -254 -262q0 -127 72 -191q67 -59 180 -53l9 -8l-13 -27q-11 -20 -53 -30q-11 -4 -51 -4q-53 0 -113 24q-41 18 -73.5 45.5t-55.5 62.5t-35 76t-12 86q0 359 412 359q432 0 432 -428v-862q0 -105 43 -123z" />
<glyph unicode="&#x5e4;" horiz-adv-x="1155" d="M1038 496q0 -244 -145 -383q-144 -138 -378 -138q-42 0 -87.5 4.5t-96.5 12.5q-107 16 -141 39v129l14 8q40 -48 125 -76q81 -29 168 -29q149 0 250 74q143 104 143 330v106q0 213 -106 322q-94 92 -242 92q-136 0 -207.5 -70.5t-71.5 -191.5q0 -127 72 -190 q66 -60 180 -54l9 -6l-13 -26q-11 -26 -53 -33q-16 -4 -51 -4q-53 0 -113 24q-80 33 -129 111q-49 77 -49 162q0 152 98 247q115 111 340 111q231 0 355 -127q129 -134 129 -387v-57z" />
<glyph unicode="&#x5e5;" horiz-adv-x="1021" d="M886 829q0 -300 -385 -430l236 -620q43 -115 104 -125l-10 -25h-101q-82 0 -118 97l-443 1161q-38 98 -139 125l20 32h82q74 0 110 -30q35 -28 64 -107l148 -389q13 -39 47 -39q67 0 143 70q99 88 99 227v51q0 155 -97 189l21 28h117q102 0 102 -215z" />
<glyph unicode="&#x5e6;" horiz-adv-x="1030" d="M900 0h-807v10l62 82h524q-63 34 -141 170l-334 584q-79 139 -174 166l16 32h115q85 0 150 -108l215 -367q24 -41 45 -41q54 0 110 74q66 82 66 195v30q0 148 -111 187l21 30h118q48 0 78 -47q37 -55 37 -159q0 -270 -311 -377l143 -236q89 -143 193 -192z" />
<glyph unicode="&#x5e7;" horiz-adv-x="1187" d="M1048 1036q-29 -29 -29 -110v-492q0 -434 -424 -434q-65 0 -102 27v69l12 4q28 -16 82 -16q291 0 291 334v479q0 34 10 47h-760l-47 76v24h967v-8zM335 643q-30 -19 -35 -31q-12 -23 -12 -75v-768q0 -78 -57 -127l-60 -52h-18v967q0 98 59 98h113z" />
<glyph unicode="&#x5e8;" horiz-adv-x="952" d="M835 0h-117q-55 0 -55 98v484q0 389 -318 389q-177 0 -262 -90l-14 2v125q112 47 281 47q452 0 452 -449v-467q0 -103 41 -123z" />
<glyph unicode="&#x5e9;" horiz-adv-x="1437" d="M1292 512q0 -267 -166 -403q-152 -125 -414 -125q-143 0 -247.5 28.5t-173.5 88t-102.5 151.5t-33.5 219v381q0 125 -84 160l12 32h105q104 0 104 -147v-305q0 -60 94 -60q147 0 209 66q54 57 54 182v72q0 121 -84 160l12 32h108q101 0 101 -147v-113q0 -317 -348 -317 h-146v-33q0 -356 408 -356h10q218 0 331 106q115 106 115 293v375q0 127 -86 160l13 32h104q105 0 105 -147v-385z" />
<glyph unicode="&#x5ea;" horiz-adv-x="1302" d="M1179 0h-119q-55 0 -55 98v553q0 176 -91 246t-310 70h-5q-29 0 -66 -3t-83 -10v-659q0 -155 -86 -238q-73 -71 -184 -71q-74 0 -113 24v92l18 9q26 -35 70 -35q152 0 152 190v668q-27 -4 -66.5 -12.5t-91.5 -22.5v115q219 39 446 39q271 0 392 -64q159 -84 159 -307 v-543q0 -103 41 -123z" />
<glyph unicode="&#x5f0;" horiz-adv-x="700" d="M609 712q0 -110 -77 -187q-76 -76 -187 -76q-108 0 -185 77t-77 186q0 110 77 187t185 77q110 0 187 -77t77 -187zM536 712q0 81 -56 137q-55 55 -135 55t-135 -55t-55 -137q0 -79 55 -135q56 -56 135 -56t135 56q56 58 56 135z" />
<glyph unicode="&#x5f1;" horiz-adv-x="700" d="M609 712q0 -110 -77 -187q-76 -76 -187 -76q-108 0 -185 77t-77 186q0 110 77 187t185 77q110 0 187 -77t77 -187zM536 712q0 81 -56 137q-55 55 -135 55t-135 -55t-55 -137q0 -79 55 -135q56 -56 135 -56t135 56q56 58 56 135z" />
<glyph unicode="&#x5f2;" horiz-adv-x="700" d="M609 712q0 -110 -77 -187q-76 -76 -187 -76q-108 0 -185 77t-77 186q0 110 77 187t185 77q110 0 187 -77t77 -187zM536 712q0 81 -56 137q-55 55 -135 55t-135 -55t-55 -137q0 -79 55 -135q56 -56 135 -56t135 56q56 58 56 135z" />
<glyph unicode="&#x5f3;" horiz-adv-x="329" d="M248 1130q0 -78 -50 -167q-52 -96 -124 -142l-23 23q43 52 66 110q7 18 8 62q2 50 -4 67q-15 28 -15 80q0 74 66 74q76 0 76 -107z" />
<glyph unicode="&#x5f4;" horiz-adv-x="630" d="M549 1130q0 -79 -49 -167q-26 -48 -57 -83.5t-68 -58.5l-25 23q22 26 38.5 53.5t29.5 56.5q7 21 8 62q1 49 -6 67q-15 33 -15 80q0 74 66 74q78 0 78 -107zM248 1130q0 -78 -50 -167q-52 -96 -124 -142l-23 23q43 52 66 110q7 18 8 62q2 50 -4 67q-15 28 -15 80 q0 74 66 74q76 0 76 -107z" />
<glyph unicode="&#x2000;" horiz-adv-x="704" />
<glyph unicode="&#x2001;" horiz-adv-x="1409" />
<glyph unicode="&#x2002;" horiz-adv-x="704" />
<glyph unicode="&#x2003;" horiz-adv-x="1409" />
<glyph unicode="&#x2004;" horiz-adv-x="469" />
<glyph unicode="&#x2005;" horiz-adv-x="352" />
<glyph unicode="&#x2006;" horiz-adv-x="234" />
<glyph unicode="&#x2007;" horiz-adv-x="234" />
<glyph unicode="&#x2008;" horiz-adv-x="176" />
<glyph unicode="&#x2009;" horiz-adv-x="281" />
<glyph unicode="&#x200a;" horiz-adv-x="78" />
<glyph unicode="&#x200c;" d="M657 770q0 -119 -83 -202t-203 -83q-118 0 -200 84q-83 85 -83 201q0 118 83 203q82 84 200 84q120 0 203 -84q83 -85 83 -203zM578 770q0 88 -60 148q-58 61 -147 61q-86 0 -146 -61q-59 -61 -59 -148q0 -84 59 -146q60 -61 146 -61q89 0 147 61q60 61 60 146z" />
<glyph unicode="&#x200d;" d="M657 770q0 -119 -83 -202t-203 -83q-118 0 -200 84q-83 85 -83 201q0 118 83 203q82 84 200 84q120 0 203 -84q83 -85 83 -203zM578 770q0 88 -60 148q-58 61 -147 61q-86 0 -146 -61q-59 -61 -59 -148q0 -84 59 -146q60 -61 146 -61q89 0 147 61q60 61 60 146z" />
<glyph unicode="&#x200e;" d="M657 770q0 -119 -83 -202t-203 -83q-118 0 -200 84q-83 85 -83 201q0 118 83 203q82 84 200 84q120 0 203 -84q83 -85 83 -203zM578 770q0 88 -60 148q-58 61 -147 61q-86 0 -146 -61q-59 -61 -59 -148q0 -84 59 -146q60 -61 146 -61q89 0 147 61q60 61 60 146z" />
<glyph unicode="&#x200f;" d="M657 770q0 -119 -83 -202t-203 -83q-118 0 -200 84q-83 85 -83 201q0 118 83 203q82 84 200 84q120 0 203 -84q83 -85 83 -203zM578 770q0 88 -60 148q-58 61 -147 61q-86 0 -146 -61q-59 -61 -59 -148q0 -84 59 -146q60 -61 146 -61q89 0 147 61q60 61 60 146z" />
<glyph unicode="&#x2010;" horiz-adv-x="696" d="M626 453h-555v90h555v-90z" />
<glyph unicode="&#x2011;" horiz-adv-x="696" d="M626 453h-555v90h555v-90z" />
<glyph unicode="&#x2012;" horiz-adv-x="696" d="M626 453h-555v90h555v-90z" />
<glyph unicode="&#x2013;" horiz-adv-x="696" d="M626 453h-555v90h555v-90z" />
<glyph unicode="&#x2014;" horiz-adv-x="959" d="M895 453h-824v90h824v-90z" />
<glyph unicode="&#x2018;" horiz-adv-x="329" d="M51 928q0 80 49 168q51 94 125 141l23 -23q-43 -52 -66 -110q-7 -18 -8 -62q-2 -50 4 -67q14 -30 14 -80q0 -74 -65 -74q-76 0 -76 107z" />
<glyph unicode="&#x2019;" horiz-adv-x="329" d="M248 1130q0 -78 -50 -167q-52 -96 -124 -142l-23 23q43 52 66 110q7 18 8 62q2 50 -4 67q-15 28 -15 80q0 74 66 74q76 0 76 -107z" />
<glyph unicode="&#x201c;" horiz-adv-x="630" d="M51 928q0 80 49 168q51 94 125 141l25 -23q-22 -26 -38.5 -53.5t-29.5 -56.5q-7 -21 -8 -62q-1 -49 6 -67q14 -34 14 -80q0 -74 -65 -74q-78 0 -78 107zM352 928q0 80 49 168q51 94 125 141l23 -23q-43 -52 -66 -110q-7 -18 -8 -62q-2 -50 4 -67q14 -30 14 -80 q0 -74 -65 -74q-76 0 -76 107z" />
<glyph unicode="&#x201d;" horiz-adv-x="630" d="M549 1130q0 -79 -49 -167q-26 -48 -57 -83.5t-68 -58.5l-25 23q22 26 38.5 53.5t29.5 56.5q7 21 8 62q1 49 -6 67q-15 33 -15 80q0 74 66 74q78 0 78 -107zM248 1130q0 -78 -50 -167q-52 -96 -124 -142l-23 23q43 52 66 110q7 18 8 62q2 50 -4 67q-15 28 -15 80 q0 74 66 74q76 0 76 -107z" />
<glyph unicode="&#x2022;" horiz-adv-x="612" d="M524 580q0 -92 -63 -153q-62 -62 -150 -62q-89 0 -153 62q-62 62 -62 153q0 90 61 151q62 62 154 62q89 0 151 -62t62 -151z" />
<glyph unicode="&#x202f;" horiz-adv-x="281" />
<glyph unicode="&#x2039;" horiz-adv-x="681" d="M562 -8h-57l-387 473l387 469h57l-244 -469z" />
<glyph unicode="&#x203a;" horiz-adv-x="681" d="M566 463l-395 -471h-57l243 471l-243 471h57z" />
<glyph unicode="&#x205f;" horiz-adv-x="352" />
<glyph unicode="&#x20aa;" horiz-adv-x="1347" d="M1183 147q0 -32 -10 -58.5t-28 -46.5t-43.5 -31t-55.5 -11h-584v526h104v-438h463q49 0 49 53v703h105v-697zM865 317h-106v385q0 52 -47 52h-445v-754h-104v844h563q60 0 99 -44q40 -43 40 -104v-379z" />
<glyph unicode="&#x22c5;" horiz-adv-x="662" d="M565 627q0 -98 -68 -166q-68 -66 -161 -66q-99 0 -166 66q-68 68 -68 166t67 164q67 67 167 67q96 0 162 -67q67 -66 67 -164z" />
<glyph unicode="&#x25a0;" d="M657 770q0 -119 -83 -202t-203 -83q-118 0 -200 84q-83 85 -83 201q0 118 83 203q82 84 200 84q120 0 203 -84q83 -85 83 -203zM578 770q0 88 -60 148q-58 61 -147 61q-86 0 -146 -61q-59 -61 -59 -148q0 -84 59 -146q60 -61 146 -61q89 0 147 61q60 61 60 146z" />
<glyph unicode="&#x25a1;" d="M657 770q0 -119 -83 -202t-203 -83q-118 0 -200 84q-83 85 -83 201q0 118 83 203q82 84 200 84q120 0 203 -84q83 -85 83 -203zM578 770q0 88 -60 148q-58 61 -147 61q-86 0 -146 -61q-59 -61 -59 -148q0 -84 59 -146q60 -61 146 -61q89 0 147 61q60 61 60 146z" />
<glyph unicode="&#x25c6;" d="M657 770q0 -119 -83 -202t-203 -83q-118 0 -200 84q-83 85 -83 201q0 118 83 203q82 84 200 84q120 0 203 -84q83 -85 83 -203zM578 770q0 88 -60 148q-58 61 -147 61q-86 0 -146 -61q-59 -61 -59 -148q0 -84 59 -146q60 -61 146 -61q89 0 147 61q60 61 60 146z" />
<glyph unicode="&#x25c7;" d="M657 770q0 -119 -83 -202t-203 -83q-118 0 -200 84q-83 85 -83 201q0 118 83 203q82 84 200 84q120 0 203 -84q83 -85 83 -203zM578 770q0 88 -60 148q-58 61 -147 61q-86 0 -146 -61q-59 -61 -59 -148q0 -84 59 -146q60 -61 146 -61q89 0 147 61q60 61 60 146z" />
<glyph unicode="&#x25cb;" d="M657 770q0 -119 -83 -202t-203 -83q-118 0 -200 84q-83 85 -83 201q0 118 83 203q82 84 200 84q120 0 203 -84q83 -85 83 -203zM578 770q0 88 -60 148q-58 61 -147 61q-86 0 -146 -61q-59 -61 -59 -148q0 -84 59 -146q60 -61 146 -61q89 0 147 61q60 61 60 146z" />
<glyph unicode="&#x25cc;" d="M657 770q0 -119 -83 -202t-203 -83q-118 0 -200 84q-83 85 -83 201q0 118 83 203q82 84 200 84q120 0 203 -84q83 -85 83 -203zM578 770q0 88 -60 148q-58 61 -147 61q-86 0 -146 -61q-59 -61 -59 -148q0 -84 59 -146q60 -61 146 -61q89 0 147 61q60 61 60 146z" />
<glyph unicode="&#x25fc;" horiz-adv-x="500" d="M0 0v0v0v0v0z" />
<glyph unicode="&#x2605;" d="M657 770q0 -119 -83 -202t-203 -83q-118 0 -200 84q-83 85 -83 201q0 118 83 203q82 84 200 84q120 0 203 -84q83 -85 83 -203zM578 770q0 88 -60 148q-58 61 -147 61q-86 0 -146 -61q-59 -61 -59 -148q0 -84 59 -146q60 -61 146 -61q89 0 147 61q60 61 60 146z" />
<glyph unicode="&#x274f;" d="M657 770q0 -119 -83 -202t-203 -83q-118 0 -200 84q-83 85 -83 201q0 118 83 203q82 84 200 84q120 0 203 -84q83 -85 83 -203zM578 770q0 88 -60 148q-58 61 -147 61q-86 0 -146 -61q-59 -61 -59 -148q0 -84 59 -146q60 -61 146 -61q89 0 147 61q60 61 60 146z" />
<glyph unicode="&#xe802;" horiz-adv-x="950" d="M837 -371h-117q-55 0 -55 99v858q0 389 -318 389q-177 0 -262 -90l-14 2v125q112 47 281 47q452 0 452 -449v-841q0 -105 41 -123zM443 455q0 -18 -7 -33.5t-18.5 -27t-27 -18.5t-33.5 -7t-34 7t-28 18.5t-19 27t-7 33.5t7.5 33t19.5 26.5t28 18t33 6.5q37 0 61.5 -24.5 t24.5 -59.5zM443 186q0 -17 -7 -32.5t-18.5 -27.5t-27 -19t-33.5 -7t-34 7t-28 19t-19 27.5t-7 32.5q0 18 7.5 33t19.5 26.5t28 18t33 6.5q37 0 61.5 -24.5t24.5 -59.5z" />
<glyph unicode="&#xe803;" horiz-adv-x="950" d="M837 -371h-117q-55 0 -55 99v858q0 389 -318 389q-177 0 -262 -90l-14 2v125q112 47 281 47q452 0 452 -449v-841q0 -105 41 -123zM545 491q26 0 26 -30v-66q0 -31 -26 -31h-158q0 -48 18 -88l23 -51q8 -18 8 -35q0 -35 -24.5 -58.5t-57.5 -23.5q-17 0 -32 6.5t-26.5 18 t-18 26t-6.5 31.5t8 35l22 51q21 45 21 88h-160q-27 0 -27 31v66q0 30 27 30h383z" />
<glyph unicode="&#xe804;" horiz-adv-x="952" d="M839 725q0 -172 -160 -332l-139 -139q-105 -104 -105 -164v-10q0 -40 29 -60l-14 -20h-103q-53 0 -53 80q0 49 33 96q23 36 104 117l141 143q125 128 125 260q0 133 -84 199q-65 51 -157 51h-389v373q0 27 -37 70l8 20h96q68 0 68 -102v-263h282q355 0 355 -319zM25 1260 q0 -18 -7 -33.5t-18.5 -27t-27 -18.5t-33.5 -7q-17 0 -32.5 7t-27.5 18.5t-19 27t-7 33.5q0 16 7 31.5t19 27t27.5 18.5t32.5 7q39 0 62.5 -23.5t23.5 -60.5z" />
<glyph unicode="&#xe805;" horiz-adv-x="952" d="M839 725q0 -172 -160 -332l-139 -139q-105 -104 -105 -164v-10q0 -40 29 -60l-14 -20h-103q-53 0 -53 80q0 49 33 96q23 36 104 117l141 143q125 128 125 260q0 133 -84 199q-65 51 -157 51h-389v373q0 27 -37 70l8 20h96q68 0 68 -102v-263h282q355 0 355 -319zM349 586 q0 -18 -7 -33.5t-18.5 -27t-27 -18.5t-33.5 -7t-33.5 7t-27 18.5t-18.5 27t-7 33.5q0 32 27 58q28 26 59 26q37 0 61.5 -23.5t24.5 -60.5zM25 1260q0 -18 -7 -33.5t-18.5 -27t-27 -18.5t-33.5 -7q-17 0 -32.5 7t-27.5 18.5t-19 27t-7 33.5q0 16 7 31.5t19 27t27.5 18.5 t32.5 7q39 0 62.5 -23.5t23.5 -60.5z" />
<glyph unicode="&#xfb1d;" horiz-adv-x="700" d="M609 712q0 -110 -77 -187q-76 -76 -187 -76q-108 0 -185 77t-77 186q0 110 77 187t185 77q110 0 187 -77t77 -187zM536 712q0 81 -56 137q-55 55 -135 55t-135 -55t-55 -137q0 -79 55 -135q56 -56 135 -56t135 56q56 58 56 135z" />
<glyph unicode="&#xfb1e;" horiz-adv-x="700" d="M609 712q0 -110 -77 -187q-76 -76 -187 -76q-108 0 -185 77t-77 186q0 110 77 187t185 77q110 0 187 -77t77 -187zM536 712q0 81 -56 137q-55 55 -135 55t-135 -55t-55 -137q0 -79 55 -135q56 -56 135 -56t135 56q56 58 56 135z" />
<glyph unicode="&#xfb1f;" horiz-adv-x="700" d="M609 712q0 -110 -77 -187q-76 -76 -187 -76q-108 0 -185 77t-77 186q0 110 77 187t185 77q110 0 187 -77t77 -187zM536 712q0 81 -56 137q-55 55 -135 55t-135 -55t-55 -137q0 -79 55 -135q56 -56 135 -56t135 56q56 58 56 135z" />
<glyph unicode="&#xfb20;" horiz-adv-x="700" d="M609 712q0 -110 -77 -187q-76 -76 -187 -76q-108 0 -185 77t-77 186q0 110 77 187t185 77q110 0 187 -77t77 -187zM536 712q0 81 -56 137q-55 55 -135 55t-135 -55t-55 -137q0 -79 55 -135q56 -56 135 -56t135 56q56 58 56 135z" />
<glyph unicode="&#xfb21;" horiz-adv-x="700" d="M609 712q0 -110 -77 -187q-76 -76 -187 -76q-108 0 -185 77t-77 186q0 110 77 187t185 77q110 0 187 -77t77 -187zM536 712q0 81 -56 137q-55 55 -135 55t-135 -55t-55 -137q0 -79 55 -135q56 -56 135 -56t135 56q56 58 56 135z" />
<glyph unicode="&#xfb22;" horiz-adv-x="700" d="M609 712q0 -110 -77 -187q-76 -76 -187 -76q-108 0 -185 77t-77 186q0 110 77 187t185 77q110 0 187 -77t77 -187zM536 712q0 81 -56 137q-55 55 -135 55t-135 -55t-55 -137q0 -79 55 -135q56 -56 135 -56t135 56q56 58 56 135z" />
<glyph unicode="&#xfb23;" horiz-adv-x="700" d="M609 712q0 -110 -77 -187q-76 -76 -187 -76q-108 0 -185 77t-77 186q0 110 77 187t185 77q110 0 187 -77t77 -187zM536 712q0 81 -56 137q-55 55 -135 55t-135 -55t-55 -137q0 -79 55 -135q56 -56 135 -56t135 56q56 58 56 135z" />
<glyph unicode="&#xfb24;" horiz-adv-x="700" d="M609 712q0 -110 -77 -187q-76 -76 -187 -76q-108 0 -185 77t-77 186q0 110 77 187t185 77q110 0 187 -77t77 -187zM536 712q0 81 -56 137q-55 55 -135 55t-135 -55t-55 -137q0 -79 55 -135q56 -56 135 -56t135 56q56 58 56 135z" />
<glyph unicode="&#xfb25;" horiz-adv-x="700" d="M609 712q0 -110 -77 -187q-76 -76 -187 -76q-108 0 -185 77t-77 186q0 110 77 187t185 77q110 0 187 -77t77 -187zM536 712q0 81 -56 137q-55 55 -135 55t-135 -55t-55 -137q0 -79 55 -135q56 -56 135 -56t135 56q56 58 56 135z" />
<glyph unicode="&#xfb26;" horiz-adv-x="700" d="M609 712q0 -110 -77 -187q-76 -76 -187 -76q-108 0 -185 77t-77 186q0 110 77 187t185 77q110 0 187 -77t77 -187zM536 712q0 81 -56 137q-55 55 -135 55t-135 -55t-55 -137q0 -79 55 -135q56 -56 135 -56t135 56q56 58 56 135z" />
<glyph unicode="&#xfb27;" horiz-adv-x="700" d="M609 712q0 -110 -77 -187q-76 -76 -187 -76q-108 0 -185 77t-77 186q0 110 77 187t185 77q110 0 187 -77t77 -187zM536 712q0 81 -56 137q-55 55 -135 55t-135 -55t-55 -137q0 -79 55 -135q56 -56 135 -56t135 56q56 58 56 135z" />
<glyph unicode="&#xfb28;" horiz-adv-x="700" d="M609 712q0 -110 -77 -187q-76 -76 -187 -76q-108 0 -185 77t-77 186q0 110 77 187t185 77q110 0 187 -77t77 -187zM536 712q0 81 -56 137q-55 55 -135 55t-135 -55t-55 -137q0 -79 55 -135q56 -56 135 -56t135 56q56 58 56 135z" />
<glyph unicode="&#xfb29;" horiz-adv-x="696" d="M646 453h-616v90h262v276h90v-276h264v-90z" />
<glyph unicode="&#xfb2a;" horiz-adv-x="1437" d="M1292 512q0 -267 -166 -403q-152 -125 -414 -125q-143 0 -247.5 28.5t-173.5 88t-102.5 151.5t-33.5 219v381q0 125 -84 160l12 32h105q104 0 104 -147v-305q0 -60 94 -60q147 0 209 66q54 57 54 182v72q0 121 -84 160l12 32h108q101 0 101 -147v-113q0 -317 -348 -317 h-146v-33q0 -356 408 -356h10q218 0 331 106q115 106 115 293v375q0 127 -86 160l13 32h104q105 0 105 -147v-385zM1185 1260q0 -18 -7 -33.5t-18.5 -27t-27 -18.5t-33.5 -7q-17 0 -32.5 7t-27.5 18.5t-19 27t-7 33.5q0 16 7 31.5t19 27t27.5 18.5t32.5 7q39 0 62.5 -23.5 t23.5 -60.5z" />
<glyph unicode="&#xfb2b;" horiz-adv-x="1437" d="M1292 512q0 -267 -166 -403q-152 -125 -414 -125q-143 0 -247.5 28.5t-173.5 88t-102.5 151.5t-33.5 219v381q0 125 -84 160l12 32h105q104 0 104 -147v-305q0 -60 94 -60q147 0 209 66q54 57 54 182v72q0 121 -84 160l12 32h108q101 0 101 -147v-113q0 -317 -348 -317 h-146v-33q0 -356 408 -356h10q218 0 331 106q115 106 115 293v375q0 127 -86 160l13 32h104q105 0 105 -147v-385zM285 1260q0 -18 -7 -33.5t-18.5 -27t-27 -18.5t-33.5 -7q-17 0 -32.5 7t-27.5 18.5t-19 27t-7 33.5q0 16 7 31.5t19 27t27.5 18.5t32.5 7q39 0 62.5 -23.5 t23.5 -60.5z" />
<glyph unicode="&#xfb2c;" horiz-adv-x="1437" d="M1292 512q0 -267 -166 -403q-152 -125 -414 -125q-143 0 -247.5 28.5t-173.5 88t-102.5 151.5t-33.5 219v381q0 125 -84 160l12 32h105q104 0 104 -147v-305q0 -60 94 -60q147 0 209 66q54 57 54 182v72q0 121 -84 160l12 32h108q101 0 101 -147v-113q0 -317 -348 -317 h-146v-33q0 -356 408 -356h10q218 0 331 106q115 106 115 293v375q0 127 -86 160l13 32h104q105 0 105 -147v-385zM1185 1260q0 -18 -7 -33.5t-18.5 -27t-27 -18.5t-33.5 -7q-17 0 -32.5 7t-27.5 18.5t-19 27t-7 33.5q0 16 7 31.5t19 27t27.5 18.5t32.5 7q39 0 62.5 -23.5 t23.5 -60.5zM1035 577q0 -18 -7 -33.5t-18.5 -27t-27 -18.5t-33.5 -7t-33.5 7t-27 18.5t-18.5 27t-7 33.5q0 32 27 58q28 26 59 26q37 0 61.5 -23.5t24.5 -60.5z" />
<glyph unicode="&#xfb2d;" horiz-adv-x="1437" d="M1292 512q0 -267 -166 -403q-152 -125 -414 -125q-143 0 -247.5 28.5t-173.5 88t-102.5 151.5t-33.5 219v381q0 125 -84 160l12 32h105q104 0 104 -147v-305q0 -60 94 -60q147 0 209 66q54 57 54 182v72q0 121 -84 160l12 32h108q101 0 101 -147v-113q0 -317 -348 -317 h-146v-33q0 -356 408 -356h10q218 0 331 106q115 106 115 293v375q0 127 -86 160l13 32h104q105 0 105 -147v-385zM285 1260q0 -18 -7 -33.5t-18.5 -27t-27 -18.5t-33.5 -7q-17 0 -32.5 7t-27.5 18.5t-19 27t-7 33.5q0 16 7 31.5t19 27t27.5 18.5t32.5 7q39 0 62.5 -23.5 t23.5 -60.5zM1035 577q0 -18 -7 -33.5t-18.5 -27t-27 -18.5t-33.5 -7t-33.5 7t-27 18.5t-18.5 27t-7 33.5q0 32 27 58q28 26 59 26q37 0 61.5 -23.5t24.5 -60.5z" />
<glyph unicode="&#xfb31;" horiz-adv-x="1036" d="M991 45l-17 -45h-905v20l49 72h621q-25 31 -25 105v409q0 369 -317 369q-177 0 -262 -90l-15 2v125q112 47 285 47q448 0 448 -449v-428q0 -81 64 -106zM399 486q0 -18 -7 -33.5t-18.5 -27t-27 -18.5t-33.5 -7t-33.5 7t-27 18.5t-18.5 27t-7 33.5q0 32 27 58q28 26 59 26 q37 0 61.5 -23.5t24.5 -60.5z" />
<glyph unicode="&#xfb32;" horiz-adv-x="733" d="M632 0h-108q-37 0 -57 47q-28 63 -44 281h-10q-28 -109 -129 -217q-95 -101 -200 -150l-23 14l49 138q179 113 270 266q31 50 31 110v279q0 197 -155 197q-68 0 -113 -45l-12 2v106q52 23 147 23q268 0 268 -297v-279q0 -219 47 -383q16 -54 50 -74zM320 566 q0 -18 -7 -33.5t-18.5 -27t-27 -18.5t-33.5 -7t-33.5 7t-27 18.5t-18.5 27t-7 33.5q0 32 27 58q28 26 59 26q37 0 61.5 -23.5t24.5 -60.5z" />
<glyph unicode="&#xfb33;" horiz-adv-x="983" d="M874 1004q-85 -26 -119 -67q-35 -43 -35 -126v-672q0 -102 45 -123l-8 -16h-115q-61 0 -61 98v703q0 112 37 145h-547l-45 82v16h840zM389 486q0 -18 -7 -33.5t-18.5 -27t-27 -18.5t-33.5 -7t-33.5 7t-27 18.5t-18.5 27t-7 33.5q0 32 27 58q28 26 59 26q37 0 61.5 -23.5 t24.5 -60.5z" />
<glyph unicode="&#xfb34;" horiz-adv-x="1105" d="M989 0h-113q-61 0 -61 98v488q0 389 -359 389q-212 0 -303 -105l-14 2v132q110 55 330 55q485 0 485 -449v-471q0 -102 43 -123zM315 0h-115q-59 0 -59 98v369q0 60 66 98l57 33l16 -8v-451q0 -102 43 -123zM630 486q0 -18 -7 -33.5t-18.5 -27t-27 -18.5t-33.5 -7 t-33.5 7t-27 18.5t-18.5 27t-7 33.5q0 32 27 58q28 26 59 26q37 0 61.5 -23.5t24.5 -60.5z" />
<glyph unicode="&#xfb35;" horiz-adv-x="452" d="M331 0h-113q-61 0 -61 98v733q0 95 -27 136q-18 28 -63 45l12 32h96q121 0 121 -167v-738q0 -102 43 -123zM89 486q0 -18 -7 -33.5t-18.5 -27t-27 -18.5t-33.5 -7t-33.5 7t-27 18.5t-18.5 27t-7 33.5q0 32 27 58q28 26 59 26q37 0 61.5 -23.5t24.5 -60.5z" />
<glyph unicode="&#xfb36;" horiz-adv-x="657" d="M549 1014q-106 -45 -174 -121q-62 -68 -62 -188q0 -44 6 -99l62 -475q10 -76 55 -113l-8 -18h-129q-39 0 -45 55l-57 455q-5 39 -8 72t-3 61q0 92 30 157q31 68 106 146h-222l-53 78v20h502v-30zM150 486q0 -18 -7 -33.5t-18.5 -27t-27 -18.5t-33.5 -7t-33.5 7t-27 18.5 t-18.5 27t-7 33.5q0 32 27 58q28 26 59 26q37 0 61.5 -23.5t24.5 -60.5z" />
<glyph unicode="&#xfb38;" horiz-adv-x="1239" d="M1120 502q0 -238 -135 -380q-133 -142 -363 -142q-228 0 -349 123q-122 125 -122 350v399q0 127 -82 160l12 32h105q104 0 104 -147v-494q0 -160 86.5 -244.5t245.5 -84.5q162 0 257 95t95 286v135q0 373 -241 373q-116 0 -166 -113h-31v133q88 66 225 66q135 0 228 -84 q131 -119 131 -385v-78zM709 486q0 -18 -7 -33.5t-18.5 -27t-27 -18.5t-33.5 -7t-33.5 7t-27 18.5t-18.5 27t-7 33.5q0 32 27 58q28 26 59 26q37 0 61.5 -23.5t24.5 -60.5z" />
<glyph unicode="&#xfb39;" horiz-adv-x="425" d="M287 639q0 -64 -51 -109l-76 -67l-13 8v377q0 133 -92 166l13 30h116q103 0 103 -139v-266zM80 716q0 -18 -7 -33.5t-18.5 -27t-27 -18.5t-33.5 -7t-33.5 7t-27 18.5t-18.5 27t-7 33.5q0 32 27 58q28 26 59 26q37 0 61.5 -23.5t24.5 -60.5z" />
<glyph unicode="&#xfb3a;" horiz-adv-x="950" d="M837 -371h-117q-55 0 -55 99v858q0 389 -318 389q-177 0 -262 -90l-14 2v125q112 47 281 47q452 0 452 -449v-841q0 -105 41 -123zM429 486q0 -18 -7 -33.5t-18.5 -27t-27 -18.5t-33.5 -7t-33.5 7t-27 18.5t-18.5 27t-7 33.5q0 32 27 58q28 26 59 26q37 0 61.5 -23.5 t24.5 -60.5z" />
<glyph unicode="&#xfb3b;" horiz-adv-x="1009" d="M900 496q0 -247 -133 -384q-134 -137 -364 -137q-196 0 -285 56v129l14 8q84 -105 252 -105q140 0 240 82q129 106 129 322v80q0 238 -129 348q-95 78 -240 78q-168 0 -252 -105l-14 6v132q88 55 285 55q236 0 366 -133q131 -134 131 -387v-45zM409 506q0 -18 -7 -33.5 t-18.5 -27t-27 -18.5t-33.5 -7t-33.5 7t-27 18.5t-18.5 27t-7 33.5q0 32 27 58q28 26 59 26q37 0 61.5 -23.5t24.5 -60.5z" />
<glyph unicode="&#xfb3c;" horiz-adv-x="952" d="M839 725q0 -172 -160 -332l-139 -139q-104 -104 -104 -164v-10q0 -41 28 -60l-14 -20h-103q-53 0 -53 80q0 49 33 96q13 19 38.5 48t65.5 69l142 143q125 128 125 260q0 133 -84 199q-66 51 -158 51h-389v373q0 27 -37 70l8 20h96q68 0 68 -102v-263h283q354 0 354 -319z M349 586q0 -18 -7 -33.5t-18.5 -27t-27 -18.5t-33.5 -7t-33.5 7t-27 18.5t-18.5 27t-7 33.5q0 32 27 58q28 26 59 26q37 0 61.5 -23.5t24.5 -60.5z" />
<glyph unicode="&#xfb3e;" horiz-adv-x="1251" d="M1120 393q0 -196 -110 -304q-110 -107 -294 -107q-132 0 -213 26v115l8 6q76 -66 197 -66h6q109 0 180 66q88 79 88 236v317q0 283 -258 283q-138 0 -211 -97q-54 -72 -112 -274l-150 -502q-16 -52 10 -84l-10 -8h-106q-39 0 -39 41q0 14 4 29l151 528l-145 332 q-32 70 -88 86l12 28h107q52 0 78 -53l110 -239q107 299 393 299q392 0 392 -379v-279zM769 496q0 -18 -7 -33.5t-18.5 -27t-27 -18.5t-33.5 -7t-33.5 7t-27 18.5t-18.5 27t-7 33.5q0 32 27 58q28 26 59 26q37 0 61.5 -23.5t24.5 -60.5z" />
<glyph unicode="&#xfb40;" horiz-adv-x="651" d="M530 0h-457v8l47 84h246v668q0 201 -156 201q-56 0 -90 -39l-10 6v102q34 19 119 19q274 0 274 -281v-643q0 -79 35 -105zM279 516q0 -18 -7 -33.5t-18.5 -27t-27 -18.5t-33.5 -7t-33.5 7t-27 18.5t-18.5 27t-7 33.5q0 32 27 58q28 26 59 26q37 0 61.5 -23.5t24.5 -60.5z " />
<glyph unicode="&#xfb41;" horiz-adv-x="1255" d="M1138 528q0 -260 -125 -403q-131 -150 -371 -150q-258 0 -385 144q-112 127 -112 348v59q0 296 174 412v6h-150l-53 84v16h561q461 0 461 -516zM988 549q0 405 -327 405h-78q-148 0 -207 -59q-82 -79 -82 -307v-152q0 -368 328 -368h26q160 0 250 100t90 285v96zM719 496 q0 -18 -7 -33.5t-18.5 -27t-27 -18.5t-33.5 -7t-33.5 7t-27 18.5t-18.5 27t-7 33.5q0 32 27 58q28 26 59 26q37 0 61.5 -23.5t24.5 -60.5z" />
<glyph unicode="&#xfb43;" horiz-adv-x="1083" d="M971 -371h-119q-55 0 -55 99v899q0 354 -306 354q-254 0 -254 -262q0 -127 72 -191q67 -59 180 -53l9 -8l-13 -27q-11 -20 -53 -30q-11 -4 -51 -4q-53 0 -113 24q-41 18 -73.5 45.5t-55.5 62.5t-35 76t-12 86q0 359 412 359q432 0 432 -428v-862q0 -105 43 -123zM590 716 q0 -18 -7 -33.5t-18.5 -27t-27 -18.5t-33.5 -7t-33.5 7t-27 18.5t-18.5 27t-7 33.5q0 32 27 58q28 26 59 26q37 0 61.5 -23.5t24.5 -60.5z" />
<glyph unicode="&#xfb44;" horiz-adv-x="1155" d="M1038 496q0 -244 -145 -383q-144 -138 -378 -138q-42 0 -87.5 4.5t-96.5 12.5q-107 16 -141 39v129l14 8q40 -48 125 -76q81 -29 168 -29q149 0 250 74q143 104 143 330v106q0 213 -106 322q-94 92 -242 92q-136 0 -207.5 -70.5t-71.5 -191.5q0 -127 72 -190 q66 -60 180 -54l9 -6l-13 -26q-11 -26 -53 -33q-16 -4 -51 -4q-53 0 -113 24q-80 33 -129 111q-49 77 -49 162q0 152 98 247q115 111 340 111q231 0 355 -127q129 -134 129 -387v-57zM639 716q0 -18 -7 -33.5t-18.5 -27t-27 -18.5t-33.5 -7t-33.5 7t-27 18.5t-18.5 27 t-7 33.5q0 32 27 58q28 26 59 26q37 0 61.5 -23.5t24.5 -60.5z" />
<glyph unicode="&#xfb46;" horiz-adv-x="1030" d="M900 0h-807v10l62 82h524q-63 34 -141 170l-334 584q-79 139 -174 166l16 32h115q85 0 150 -108l215 -367q24 -41 45 -41q54 0 110 74q66 82 66 195v30q0 148 -111 187l21 30h118q48 0 78 -47q37 -55 37 -159q0 -270 -311 -377l143 -236q89 -143 193 -192zM299 506 q0 -18 -7 -33.5t-18.5 -27t-27 -18.5t-33.5 -7t-33.5 7t-27 18.5t-18.5 27t-7 33.5q0 32 27 58q28 26 59 26q37 0 61.5 -23.5t24.5 -60.5z" />
<glyph unicode="&#xfb47;" horiz-adv-x="1187" d="M1048 1036q-29 -29 -29 -110v-492q0 -434 -424 -434q-65 0 -102 27v69l12 4q28 -16 82 -16q291 0 291 334v479q0 34 10 47h-760l-47 76v24h967v-8zM335 643q-30 -19 -35 -31q-12 -23 -12 -75v-768q0 -78 -57 -127l-60 -52h-18v967q0 98 59 98h113zM669 536 q0 -18 -7 -33.5t-18.5 -27t-27 -18.5t-33.5 -7t-33.5 7t-27 18.5t-18.5 27t-7 33.5q0 32 27 58q28 26 59 26q37 0 61.5 -23.5t24.5 -60.5z" />
<glyph unicode="&#xfb48;" horiz-adv-x="952" d="M835 0h-117q-55 0 -55 98v484q0 389 -318 389q-177 0 -262 -90l-14 2v125q112 47 281 47q452 0 452 -449v-467q0 -103 41 -123zM419 466q0 -18 -7 -33.5t-18.5 -27t-27 -18.5t-33.5 -7t-33.5 7t-27 18.5t-18.5 27t-7 33.5q0 32 27 58q28 26 59 26q37 0 61.5 -23.5 t24.5 -60.5z" />
<glyph unicode="&#xfb49;" horiz-adv-x="1437" d="M1292 512q0 -267 -166 -403q-152 -125 -414 -125q-143 0 -247.5 28.5t-173.5 88t-102.5 151.5t-33.5 219v381q0 125 -84 160l12 32h105q104 0 104 -147v-305q0 -60 94 -60q147 0 209 66q54 57 54 182v72q0 121 -84 160l12 32h108q101 0 101 -147v-113q0 -317 -348 -317 h-146v-33q0 -356 408 -356h10q218 0 331 106q115 106 115 293v375q0 127 -86 160l13 32h104q105 0 105 -147v-385zM1035 577q0 -18 -7 -33.5t-18.5 -27t-27 -18.5t-33.5 -7t-33.5 7t-27 18.5t-18.5 27t-7 33.5q0 32 27 58q28 26 59 26q37 0 61.5 -23.5t24.5 -60.5z" />
<glyph unicode="&#xfb4a;" horiz-adv-x="1302" d="M1179 0h-119q-55 0 -55 98v553q0 176 -91 246t-310 70h-5q-29 0 -66 -3t-83 -10v-659q0 -155 -86 -238q-73 -71 -184 -71q-74 0 -113 24v92l18 9q26 -35 70 -35q152 0 152 190v668q-27 -4 -66.5 -12.5t-91.5 -22.5v115q219 39 446 39q271 0 392 -64q159 -84 159 -307 v-543q0 -103 41 -123zM805 456q0 -18 -7 -33.5t-18.5 -27t-27 -18.5t-33.5 -7t-33.5 7t-27 18.5t-18.5 27t-7 33.5q0 32 27 58q28 26 59 26q37 0 61.5 -23.5t24.5 -60.5z" />
<glyph unicode="&#xfb4b;" horiz-adv-x="452" d="M331 0h-112q-62 0 -62 98v733q0 95 -27 136q-18 28 -63 45l12 32h97q120 0 120 -167v-738q0 -102 43 -123zM265 1260q0 -18 -7 -33.5t-18.5 -27t-27 -18.5t-33.5 -7q-17 0 -32.5 7t-27.5 18.5t-19 27t-7 33.5q0 16 7 31.5t19 27t27.5 18.5t32.5 7q39 0 62.5 -23.5 t23.5 -60.5z" />
<glyph horiz-adv-x="0" />
<glyph horiz-adv-x="700" d="M609 712q0 -110 -77 -187q-76 -76 -187 -76q-108 0 -185 77t-77 186q0 110 77 187t185 77q110 0 187 -77t77 -187zM536 712q0 81 -56 137q-55 55 -135 55t-135 -55t-55 -137q0 -79 55 -135q56 -56 135 -56t135 56q56 58 56 135z" />
<glyph horiz-adv-x="700" d="M609 712q0 -110 -77 -187q-76 -76 -187 -76q-108 0 -185 77t-77 186q0 110 77 187t185 77q110 0 187 -77t77 -187zM536 712q0 81 -56 137q-55 55 -135 55t-135 -55t-55 -137q0 -79 55 -135q56 -56 135 -56t135 56q56 58 56 135z" />
<glyph horiz-adv-x="700" d="M609 712q0 -110 -77 -187q-76 -76 -187 -76q-108 0 -185 77t-77 186q0 110 77 187t185 77q110 0 187 -77t77 -187zM536 712q0 81 -56 137q-55 55 -135 55t-135 -55t-55 -137q0 -79 55 -135q56 -56 135 -56t135 56q56 58 56 135z" />
<glyph horiz-adv-x="700" d="M609 712q0 -110 -77 -187q-76 -76 -187 -76q-108 0 -185 77t-77 186q0 110 77 187t185 77q110 0 187 -77t77 -187zM536 712q0 81 -56 137q-55 55 -135 55t-135 -55t-55 -137q0 -79 55 -135q56 -56 135 -56t135 56q56 58 56 135z" />
<glyph d="M657 770q0 -119 -83 -202t-203 -83q-118 0 -200 84q-83 85 -83 201q0 118 83 203q82 84 200 84q120 0 203 -84q83 -85 83 -203zM578 770q0 88 -60 148q-58 61 -147 61q-86 0 -146 -61q-59 -61 -59 -148q0 -84 59 -146q60 -61 146 -61q89 0 147 61q60 61 60 146z" />
<glyph d="M657 770q0 -119 -83 -202t-203 -83q-118 0 -200 84q-83 85 -83 201q0 118 83 203q82 84 200 84q120 0 203 -84q83 -85 83 -203zM578 770q0 88 -60 148q-58 61 -147 61q-86 0 -146 -61q-59 -61 -59 -148q0 -84 59 -146q60 -61 146 -61q89 0 147 61q60 61 60 146z" />
<glyph d="M657 770q0 -119 -83 -202t-203 -83q-118 0 -200 84q-83 85 -83 201q0 118 83 203q82 84 200 84q120 0 203 -84q83 -85 83 -203zM578 770q0 88 -60 148q-58 61 -147 61q-86 0 -146 -61q-59 -61 -59 -148q0 -84 59 -146q60 -61 146 -61q89 0 147 61q60 61 60 146z" />
<glyph horiz-adv-x="0" d="M934 -299q0 -39 -26 -66.5t-68 -27.5q-39 0 -65.5 27.5t-26.5 66.5t26.5 64.5t65.5 25.5t66.5 -25.5t27.5 -64.5zM934 -600q0 -42 -26 -68t-68 -26q-39 0 -65.5 26t-26.5 68q0 18 7.5 35t20 29.5t29.5 20t35 7.5q42 0 68 -26.5t26 -65.5zM639 -672h-94v445h94v-445z M418 -346h-170l-6 -100q0 -23 29 -67q30 -44 30 -65q0 -40 -26.5 -67t-65.5 -27q-20 0 -36.5 7.5t-29 20.5t-19.5 30t-7 36q0 25 30 67q31 41 31 67l-8 98h-170v119h418v-119z" />
<glyph d="M657 770q0 -119 -83 -202t-203 -83q-118 0 -200 84q-83 85 -83 201q0 118 83 203q82 84 200 84q120 0 203 -84q83 -85 83 -203zM578 770q0 88 -60 148q-58 61 -147 61q-86 0 -146 -61q-59 -61 -59 -148q0 -84 59 -146q60 -61 146 -61q89 0 147 61q60 61 60 146z" />
<glyph d="M657 770q0 -119 -83 -202t-203 -83q-118 0 -200 84q-83 85 -83 201q0 118 83 203q82 84 200 84q120 0 203 -84q83 -85 83 -203zM578 770q0 88 -60 148q-58 61 -147 61q-86 0 -146 -61q-59 -61 -59 -148q0 -84 59 -146q60 -61 146 -61q89 0 147 61q60 61 60 146z" />
<glyph d="M657 770q0 -119 -83 -202t-203 -83q-118 0 -200 84q-83 85 -83 201q0 118 83 203q82 84 200 84q120 0 203 -84q83 -85 83 -203zM578 770q0 88 -60 148q-58 61 -147 61q-86 0 -146 -61q-59 -61 -59 -148q0 -84 59 -146q60 -61 146 -61q89 0 147 61q60 61 60 146z" />
<glyph d="M657 770q0 -119 -83 -202t-203 -83q-118 0 -200 84q-83 85 -83 201q0 118 83 203q82 84 200 84q120 0 203 -84q83 -85 83 -203zM578 770q0 88 -60 148q-58 61 -147 61q-86 0 -146 -61q-59 -61 -59 -148q0 -84 59 -146q60 -61 146 -61q89 0 147 61q60 61 60 146z" />
</font>
</defs>
</svg>
